<?xml version="1.0" encoding="utf-8"?>
<!-- Generator: Adobe Illustrator 25.0.1, SVG Export Plug-In . SVG Version: 6.00 Build 0)  -->
<svg version="1.1" id="Capa_1" xmlns="http://www.w3.org/2000/svg" xmlns:xlink="http://www.w3.org/1999/xlink" x="0px" y="0px"
	 width="18px" height="18px" viewBox="0 0 18 18" style="enable-background:new 0 0 18 18;" xml:space="preserve">
<style type="text/css">
	.st0{fill:#141414;stroke:#FFFFFF;stroke-width:0.35;}
</style>
<path class="st0" d="M3,3.9L3,3.9l0-0.1L0.3,1.1l1-1l2.7,2.7l0,0H4h13c0.1,0,0.2,0,0.3,0.1c0.1,0,0.2,0.1,0.2,0.2
	c0.1,0.1,0.1,0.2,0.1,0.3c0,0.1,0,0.2,0,0.3l-2,6.8v0c0,0.1-0.1,0.3-0.3,0.4c-0.1,0.1-0.3,0.1-0.4,0.1H4.5H4.4v0.1v1.7v0.1h0.1h9.2
	v1.4H3.7c-0.2,0-0.4-0.1-0.5-0.2C3,14.1,3,14,3,13.8V3.9z M4.5,4.2H4.4v0.1v5.1v0.1h0.1h9.8h0.1l0-0.1L16,4.4l0.1-0.2h-0.2H4.5z
	 M4.1,17.9c-0.3,0-0.6-0.1-0.8-0.3C3.1,17.3,3,17.1,3,16.8s0.1-0.6,0.3-0.8c0.2-0.2,0.5-0.3,0.8-0.3c0.3,0,0.6,0.1,0.8,0.3
	c0.2,0.2,0.3,0.5,0.3,0.8s-0.1,0.6-0.3,0.8C4.7,17.8,4.4,17.9,4.1,17.9z M14.3,17.9c-0.3,0-0.6-0.1-0.8-0.3
	c-0.2-0.2-0.3-0.5-0.3-0.8s0.1-0.6,0.3-0.8c0.2-0.2,0.5-0.3,0.8-0.3c0.3,0,0.6,0.1,0.8,0.3c0.2,0.2,0.3,0.5,0.3,0.8
	s-0.1,0.6-0.3,0.8C14.9,17.8,14.6,17.9,14.3,17.9z"/>
</svg>
