<svg id="Layer_1" data-name="Layer 1" xmlns="http://www.w3.org/2000/svg" viewBox="0 0 258.33 63.73"><defs><style>.cls-1{fill:#fff;}</style></defs><path class="cls-1" d="M13.09,7.62V38.78h8.19c11.38,0,17-6.85,17-16.11s-5.53-15-16.64-15ZM0,5H21.9C36.24,5,44.78,11,44.78,22.13c0,12.2-8.9,19.32-23.59,19.32h-8.1v13.8c0,4.9,2.58,5.44,8.46,6.51v1.07H0V61.76c4.72-1.16,6.68-1.6,6.68-6.51V12.52C6.68,7.62,4.73,7.18,0,6Z"/><path class="cls-1" d="M57.9,58.9c6.76,0,12.19-5.53,12.19-13.8V40.92L54.16,49.29c-2,1.07-2.67,2-2.67,3.29A6.2,6.2,0,0,0,57.9,58.9ZM46.06,33.26c-.52-3.46,2.85-6.77,8.55-10.68,5.53-3.83,8.55-5.17,11.49-5.17,6.5,0,10.24,4.56,10.24,11.22V54.27c0,3.3,2,4.72,4.09,4.72,1.6,0,2.93-.89,4.18-3.11l1.16.53c-1.42,3.74-4.18,6.86-8.1,6.86s-7.12-2.41-7.12-8.19V52.67c-2.23,6.95-8.1,11-14.43,11S45.26,59.26,45.26,54.1a5.35,5.35,0,0,1,3.3-5l21.54-11V29.43C70.1,25,67.61,22,62.45,22c-5.88,0-10.69,5.7-10.33,10.33A10.7,10.7,0,0,1,46.06,33.26Z"/><path class="cls-1" d="M95.6,27.74C98.9,20.37,103.17,17,109.94,17h1.87V22.5H108.6C102.91,22.5,98.54,25,96.05,31V55.26c0,4.9,1.6,5.7,7.57,6.51v1.07H84V61.77c4.09-1,5.78-1.6,5.78-6.51V22.49h-8V21.42l13.8-4Z"/><path class="cls-1" d="M128,5a5.09,5.09,0,0,1-1.44,3.67,5.13,5.13,0,0,1-1.66,1.14,5.2,5.2,0,0,1-3.95,0,5.11,5.11,0,0,1-2.75-2.83,5,5,0,0,1-.35-2A5.08,5.08,0,0,1,128,5Zm-2.31,50.3c0,4.9,1.42,5.7,4.89,6.51v1.07h-16V61.76c3.47-.8,4.89-1.6,4.89-6.51V22.49h-8V21.42l14.25-4Z"/><path class="cls-1" d="M155.85,53c0-11.76-23.59-10-23.59-23.51,0-8,6.14-12.11,14.15-12.11a23.78,23.78,0,0,1,12.82,3.39v12h-1.07c-1.6-8.37-6.94-12.91-13.35-12.91-4.46,0-7.84,2.23-7.84,7,0,10.5,23.42,8.9,23.42,23.5,0,8.28-5.79,13.36-15.4,13.36a23.62,23.62,0,0,1-12.64-3.3V46.62h1.06C134.75,57,141.52,61,147.31,61,152.73,61,155.85,57.84,155.85,53Z"/><path class="cls-1" d="M174.52,63.71c-7.48,0-12.83-3.2-12.83-8.55a8.81,8.81,0,0,1,1.25-4.09h1c3.65,6.68,8.81,9.52,14.42,9.52,6.59,0,12.11-4.89,12.11-12.81,0-8.28-6.41-13.63-16-14.87V31.13c8.45-1.52,13.35-5.26,13.35-12,0-6.5-4-9.79-10.5-9.79-6,0-11.05,2.85-12.2,10.51h-1.34c.36-10,7-15.76,15.94-15.76,8.55,0,14.24,5.16,14.24,12.82,0,5.78-3.29,10-9.61,13.09,6.41,1.87,12.19,7.65,12.19,14.86C196.51,57.57,185.91,63.71,174.52,63.71Z"/><path class="cls-1" d="M222.34,62.82H199V61.75c5.87-1.06,8.46-1.6,8.46-6.5V13.5l-11.39,5.6V17.68L213.9,4.06V55.25c0,4.9,2.58,5.44,8.46,6.51Z"/><path class="cls-1" d="M221.18,61.93c20.3-22.88,28-30.9,28-41.13,0-7.12-4.45-11.58-12.1-11.58-7.39,0-12.47,5.08-12.91,13.45h-1.33c0-11,7-18.61,17.18-18.61,9.71,0,15.76,5.7,15.76,15.22,0,11.58-10.51,20.13-27,37.75h29.56v5.79H221.18Z"/></svg>