<svg width="260" height="64" viewBox="0 0 260 64" fill="none" xmlns="http://www.w3.org/2000/svg">
<path d="M0.749512 4.96927H22.6528C36.9871 4.96927 45.5318 11.0257 45.5318 22.1529C45.5318 34.3503 36.6293 41.4736 21.9404 41.4736H13.8381V55.2745C13.8381 60.1697 16.4207 60.7064 22.295 61.7798V62.8499H0.749512V61.7798C5.46909 60.6219 7.42717 60.1762 7.42717 55.2745V12.5382C7.42717 7.63968 5.47559 7.19732 0.749512 6.03288V4.96927ZM13.8381 7.63968V38.8032H22.0283C33.4125 38.8032 39.033 31.9466 39.033 22.6864C39.033 13.5172 33.5036 7.63968 22.386 7.63968H13.8381Z" fill="#141414"/>
<path d="M46.8132 33.2834C46.2863 29.8194 49.6625 26.5147 55.3612 22.5985C60.8906 18.7702 63.9091 17.4333 66.8462 17.4333C73.3515 17.4333 77.0855 21.987 77.0855 28.6517V54.2955C77.0855 57.5904 79.1314 59.0118 81.1806 59.0118C82.7841 59.0118 84.108 58.1238 85.3635 55.8958L86.5214 56.4325C85.0968 60.1697 82.3385 63.2858 78.4191 63.2858C74.4997 63.2858 71.2991 60.8821 71.2991 55.0956V52.6919C69.071 59.6363 63.1968 63.7314 56.8736 63.7314C50.6416 63.7314 46.0131 59.2818 46.0131 54.1166C46.0131 52.0674 46.9889 50.2882 49.3048 49.1303L70.8535 38.0908V29.4551C70.8535 25.0022 68.3587 22.0651 63.1968 22.0651C57.3192 22.0651 52.5118 27.7637 52.8664 32.3922C50.9793 33.275 48.8747 33.5849 46.8132 33.2834V33.2834ZM58.6463 58.924C65.4118 58.924 70.8437 53.3945 70.8437 45.123V40.9402L54.9058 49.3092C52.9542 50.376 52.2354 51.3551 52.2354 52.6041C52.2451 55.808 54.5578 58.924 58.6463 58.924Z" fill="#141414"/>
<path d="M96.3509 27.7638C99.6458 20.3868 103.92 16.9911 110.689 16.9911H112.559V22.5205H109.352C103.656 22.5205 99.2913 25.0121 96.7998 31.0652V55.2843C96.7998 60.1796 98.4001 60.983 104.365 61.7896V62.8597H84.7748V61.7896C88.8731 60.8138 90.5645 60.1861 90.5645 55.2843V22.5108H82.55V21.4407L96.3509 17.4334V27.7638Z" fill="#141414"/>
<path d="M126.415 55.2746C126.415 60.1698 127.84 60.9732 131.314 61.7799V62.85H115.288V61.7799C118.758 60.9797 120.183 60.1763 120.183 55.2746V22.5108H112.172V21.4407L126.415 17.4334V55.2746ZM128.731 4.96934C128.748 5.64671 128.629 6.32066 128.382 6.95147C128.135 7.58229 127.764 8.15721 127.291 8.64236C126.818 9.12751 126.252 9.51307 125.628 9.77633C125.004 10.0396 124.333 10.1752 123.655 10.1752C122.978 10.1752 122.307 10.0396 121.683 9.77633C121.058 9.51307 120.493 9.12751 120.02 8.64236C119.547 8.15721 119.176 7.58229 118.928 6.95147C118.681 6.32066 118.562 5.64671 118.579 4.96934C118.613 3.64542 119.162 2.38699 120.111 1.46246C121.059 0.537926 122.331 0.0204773 123.655 0.0204773C124.98 0.0204773 126.251 0.537926 127.2 1.46246C128.148 2.38699 128.697 3.64542 128.731 4.96934V4.96934Z" fill="#141414"/>
<path d="M156.597 53.0497C156.597 41.2947 133.005 43.0771 133.005 29.5429C133.005 21.5317 139.146 17.4333 147.161 17.4333C152.69 17.4333 156.775 18.858 159.979 20.8193V32.8541H158.912C157.309 24.4851 151.968 19.9444 145.557 19.9444C141.104 19.9444 137.721 22.1692 137.721 26.8888C137.721 37.3948 161.14 35.7912 161.14 50.3923C161.14 58.6735 155.354 63.7476 145.739 63.7476C140.486 63.7476 136.212 62.4141 133.096 60.4527V46.6388H134.163C135.5 57.0472 142.265 61.061 148.055 61.061C153.48 61.061 156.597 57.8571 156.597 53.0497Z" fill="#141414"/>
<path d="M175.266 63.7314C167.785 63.7314 162.444 60.5275 162.444 55.1834C162.444 53.8499 162.981 52.3374 163.693 51.0884H164.669C168.319 57.766 173.484 60.6153 179.091 60.6153C185.681 60.6153 191.201 55.7201 191.201 47.7967C191.201 39.5155 184.79 34.1714 175.175 32.9257V31.1465C183.632 29.6307 188.531 25.8935 188.531 19.1117C188.531 12.6064 184.523 9.32127 178.025 9.32127C172.059 9.32127 166.982 12.1673 165.827 19.8273H164.49C164.848 9.85471 171.523 4.06827 180.428 4.06827C188.976 4.06827 194.672 9.2302 194.672 16.8869C194.672 22.6733 191.38 26.8595 185.057 29.9755C191.468 31.8458 197.254 37.6322 197.254 44.8433C197.257 57.5904 186.664 63.7314 175.266 63.7314Z" fill="#141414"/>
<path d="M223.093 62.8433H199.768V61.7732C205.643 60.7063 208.225 60.1697 208.225 55.2679V13.5171L196.841 19.1246V17.7032L214.649 4.08121V55.2744C214.649 60.1697 217.232 60.7063 223.106 61.7797L223.093 62.8433Z" fill="#141414"/>
<path d="M221.929 61.9521C242.228 39.0698 249.901 31.0521 249.901 20.8193C249.901 13.696 245.452 9.24314 237.795 9.24314C230.405 9.24314 225.331 14.3173 224.885 22.6863H223.555C223.555 11.6468 230.59 4.08121 240.739 4.08121C250.445 4.08121 256.498 9.77657 256.498 19.3035C256.498 30.8797 245.992 39.4276 229.52 57.0536H259.08V62.8433H221.929V61.9521Z" fill="#141414"/>
</svg>
